# xmcd CD database file
#
# Track frame offsets:
#	150
#	12121
#	24736
#	38333
#	48999
#	62288
#	75108
#	87862
#	99969
#	111583
#	124279
#	137216
#	150654
#	162527
#	175710
#	193877
#	207960
#	230403
#	247734
#
# Disc length: 3665 seconds
#
# Revision: 0
# Processed by: cddbd v1.5.2PL0 Copyright (c) Steve Scherf et al.
# Submitted via: CDex 1.70beta2
#
DISCID=e80e4f13
DTITLE=Bukka White - Bukka White
DYEAR=1900
DGENRE=Blues
TTITLE0=Parchman Farm Blues
TTITLE1=Fixin' To Die Blues
TTITLE2=Shake 'Em On Down
TTITLE3=Good Gin Blues
TTITLE4=Black Train Blues
TTITLE5=Sleepy Man Blues
TTITLE6=High Fever Blues
TTITLE7=District Attorney Blues
TTITLE8=Aberdeen Mississippi Blues
TTITLE9=Pinebluff, Arkansas
TTITLE10=Strange Place Blues
TTITLE11=When Can I Change My Clothes?
TTITLE12=Bukka's Jittebug Swing
TTITLE13=Special Streamline
TTITLE14=Drunk Man's Blues
TTITLE15=Army Blues
TTITLE16=Baby Please Don't Go
TTITLE17=I Am In The Heavenly Way
TTITLE18=Atlanta Special
EXTD=
EXTT0=
EXTT1=
EXTT2=
EXTT3=
EXTT4=
EXTT5=
EXTT6=
EXTT7=
EXTT8=
EXTT9=
EXTT10=
EXTT11=
EXTT12=
EXTT13=
EXTT14=
EXTT15=
EXTT16=
EXTT17=
EXTT18=
PLAYORDER=
